<svg xmlns="http://www.w3.org/2000/svg" width="650" height="613" viewBox="0 0 650 613" font-family="system-ui,-apple-system,Segoe UI,sans-serif">
<rect width="650" height="613" fill="#1a1a19"/>
<text x="30" y="38" font-size="20" font-weight="700" fill="#ffffff">GST slab: what the notification says vs what the model said</text>
<text x="30" y="62" font-size="13" fill="#c3c2b7">n=24 · slab accuracy 54% · stale-slab rate 4% · nvidia/nemotron-3-super-120b-a12b</text>
<polygon points="337.0,330.0 368.0,347.0 337.0,364.0 306.0,347.0" fill="none" stroke="#2c2c2a" stroke-width="1"/>
<polygon points="306.0,347.0 337.0,364.0 306.0,381.0 275.0,364.0" fill="none" stroke="#2c2c2a" stroke-width="1"/>
<polygon points="275.0,364.0 306.0,381.0 275.0,398.0 244.0,381.0" fill="none" stroke="#2c2c2a" stroke-width="1"/>
<polygon points="244.0,381.0 275.0,398.0 244.0,415.0 213.0,398.0" fill="none" stroke="#2c2c2a" stroke-width="1"/>
<polygon points="213.0,398.0 244.0,415.0 213.0,432.0 182.0,415.0" fill="none" stroke="#2c2c2a" stroke-width="1"/>
<polygon points="182.0,415.0 213.0,432.0 182.0,449.0 151.0,432.0" fill="none" stroke="#2c2c2a" stroke-width="1"/>
<polygon points="151.0,432.0 182.0,449.0 151.0,466.0 120.0,449.0" fill="none" stroke="#2c2c2a" stroke-width="1"/>
<polygon points="368.0,347.0 399.0,364.0 368.0,381.0 337.0,364.0" fill="none" stroke="#2c2c2a" stroke-width="1"/>
<polygon points="337.0,364.0 368.0,381.0 337.0,398.0 306.0,381.0" fill="none" stroke="#2c2c2a" stroke-width="1"/>
<polygon points="306.0,381.0 337.0,398.0 306.0,415.0 275.0,398.0" fill="none" stroke="#2c2c2a" stroke-width="1"/>
<polygon points="275.0,398.0 306.0,415.0 275.0,432.0 244.0,415.0" fill="none" stroke="#2c2c2a" stroke-width="1"/>
<polygon points="244.0,415.0 275.0,432.0 244.0,449.0 213.0,432.0" fill="none" stroke="#2c2c2a" stroke-width="1"/>
<polygon points="213.0,432.0 244.0,449.0 213.0,466.0 182.0,449.0" fill="none" stroke="#2c2c2a" stroke-width="1"/>
<polygon points="182.0,449.0 213.0,466.0 182.0,483.0 151.0,466.0" fill="none" stroke="#2c2c2a" stroke-width="1"/>
<polygon points="337.0,278.0 306.0,295.0 306.0,347.0 337.0,330.0" fill="#2961a4" stroke="#2961a4" stroke-width="0.5" stroke-linejoin="round"/><polygon points="306.0,295.0 337.0,312.0 337.0,364.0 306.0,347.0" fill="#3174c4" stroke="#3174c4" stroke-width="0.5" stroke-linejoin="round"/><polygon points="337.0,278.0 368.0,295.0 337.0,312.0 306.0,295.0" fill="#3987e5" stroke="#3987e5" stroke-width="0.5" stroke-linejoin="round"/>
<polygon points="275.0,260.0 244.0,277.0 244.0,381.0 275.0,364.0" fill="#087508" stroke="#087508" stroke-width="0.5" stroke-linejoin="round"/><polygon points="244.0,277.0 275.0,294.0 275.0,398.0 244.0,381.0" fill="#0a8c0a" stroke="#0a8c0a" stroke-width="0.5" stroke-linejoin="round"/><polygon points="275.0,260.0 306.0,277.0 275.0,294.0 244.0,277.0" fill="#0ca30c" stroke="#0ca30c" stroke-width="0.5" stroke-linejoin="round"/>
<polygon points="337.0,338.0 306.0,355.0 306.0,381.0 337.0,364.0" fill="#2961a4" stroke="#2961a4" stroke-width="0.5" stroke-linejoin="round"/><polygon points="306.0,355.0 337.0,372.0 337.0,398.0 306.0,381.0" fill="#3174c4" stroke="#3174c4" stroke-width="0.5" stroke-linejoin="round"/><polygon points="337.0,338.0 368.0,355.0 337.0,372.0 306.0,355.0" fill="#3987e5" stroke="#3987e5" stroke-width="0.5" stroke-linejoin="round"/>
<polygon points="306.0,329.0 275.0,346.0 275.0,398.0 306.0,381.0" fill="#2961a4" stroke="#2961a4" stroke-width="0.5" stroke-linejoin="round"/><polygon points="275.0,346.0 306.0,363.0 306.0,415.0 275.0,398.0" fill="#3174c4" stroke="#3174c4" stroke-width="0.5" stroke-linejoin="round"/><polygon points="306.0,329.0 337.0,346.0 306.0,363.0 275.0,346.0" fill="#3987e5" stroke="#3987e5" stroke-width="0.5" stroke-linejoin="round"/>
<polygon points="275.0,372.0 244.0,389.0 244.0,415.0 275.0,398.0" fill="#952a2a" stroke="#952a2a" stroke-width="0.5" stroke-linejoin="round"/><polygon points="244.0,389.0 275.0,406.0 275.0,432.0 244.0,415.0" fill="#b23232" stroke="#b23232" stroke-width="0.5" stroke-linejoin="round"/><polygon points="275.0,372.0 306.0,389.0 275.0,406.0 244.0,389.0" fill="#d03b3b" stroke="#d03b3b" stroke-width="0.5" stroke-linejoin="round"/>
<polygon points="244.0,181.0 213.0,198.0 213.0,432.0 244.0,415.0" fill="#087508" stroke="#087508" stroke-width="0.5" stroke-linejoin="round"/><polygon points="213.0,198.0 244.0,215.0 244.0,449.0 213.0,432.0" fill="#0a8c0a" stroke="#0a8c0a" stroke-width="0.5" stroke-linejoin="round"/><polygon points="244.0,181.0 275.0,198.0 244.0,215.0 213.0,198.0" fill="#0ca30c" stroke="#0ca30c" stroke-width="0.5" stroke-linejoin="round"/>
<polygon points="151.0,406.0 120.0,423.0 120.0,449.0 151.0,432.0" fill="#2961a4" stroke="#2961a4" stroke-width="0.5" stroke-linejoin="round"/><polygon points="120.0,423.0 151.0,440.0 151.0,466.0 120.0,449.0" fill="#3174c4" stroke="#3174c4" stroke-width="0.5" stroke-linejoin="round"/><polygon points="151.0,406.0 182.0,423.0 151.0,440.0 120.0,423.0" fill="#3987e5" stroke="#3987e5" stroke-width="0.5" stroke-linejoin="round"/>
<polygon points="213.0,406.0 182.0,423.0 182.0,449.0 213.0,432.0" fill="#2961a4" stroke="#2961a4" stroke-width="0.5" stroke-linejoin="round"/><polygon points="182.0,423.0 213.0,440.0 213.0,466.0 182.0,449.0" fill="#3174c4" stroke="#3174c4" stroke-width="0.5" stroke-linejoin="round"/><polygon points="213.0,406.0 244.0,423.0 213.0,440.0 182.0,423.0" fill="#3987e5" stroke="#3987e5" stroke-width="0.5" stroke-linejoin="round"/>
<polygon points="182.0,371.0 151.0,388.0 151.0,466.0 182.0,449.0" fill="#2961a4" stroke="#2961a4" stroke-width="0.5" stroke-linejoin="round"/><polygon points="151.0,388.0 182.0,405.0 182.0,483.0 151.0,466.0" fill="#3174c4" stroke="#3174c4" stroke-width="0.5" stroke-linejoin="round"/><polygon points="182.0,371.0 213.0,388.0 182.0,405.0 151.0,388.0" fill="#3987e5" stroke="#3987e5" stroke-width="0.5" stroke-linejoin="round"/>
<text x="121.5" y="470.1" text-anchor="end" font-size="14" font-weight="600" fill="#c3c2b7">5%</text>
<text x="152.5" y="487.1" text-anchor="end" font-size="14" font-weight="600" fill="#c3c2b7">18%</text>
<path d="M388.5,372.5 L465.0,373.5" stroke="#383835" stroke-width="1" fill="none"/>
<text x="473.0" y="377.5" text-anchor="start" font-size="13" font-weight="600" fill="#c3c2b7">0%</text>
<path d="M357.5,389.5 L465.0,390.5" stroke="#383835" stroke-width="1" fill="none"/>
<text x="473.0" y="394.5" text-anchor="start" font-size="13" font-weight="600" fill="#c3c2b7">3%</text>
<path d="M326.5,406.5 L465.0,407.5" stroke="#383835" stroke-width="1" fill="none"/>
<text x="473.0" y="411.5" text-anchor="start" font-size="13" font-weight="600" fill="#c3c2b7">5%</text>
<path d="M295.5,423.5 L465.0,424.5" stroke="#383835" stroke-width="1" fill="none"/>
<text x="473.0" y="428.5" text-anchor="start" font-size="13" font-weight="600" fill="#d03b3b">12% †</text>
<path d="M264.5,440.5 L465.0,441.5" stroke="#383835" stroke-width="1" fill="none"/>
<text x="473.0" y="445.5" text-anchor="start" font-size="13" font-weight="600" fill="#c3c2b7">18%</text>
<path d="M233.5,457.5 L465.0,458.5" stroke="#383835" stroke-width="1" fill="none"/>
<text x="473.0" y="462.5" text-anchor="start" font-size="13" font-weight="600" fill="#c3c2b7">no answer</text>
<path d="M202.5,474.5 L465.0,475.5" stroke="#383835" stroke-width="1" fill="none"/>
<text x="473.0" y="479.5" text-anchor="start" font-size="13" font-weight="600" fill="#c3c2b7">refused</text>
<text x="101.4" y="493.2" text-anchor="end" font-size="11" letter-spacing="0.09em" fill="#898781">GAZETTE SAYS</text>
<text x="473.0" y="348.7" text-anchor="start" font-size="11" letter-spacing="0.09em" fill="#898781">MODEL SAID</text>
<text x="337.0" y="286.0" text-anchor="middle" font-size="14" font-weight="700" fill="#ffffff" stroke="#1a1a19" stroke-width="3" paint-order="stroke" >2</text>
<text x="275.0" y="268.0" text-anchor="middle" font-size="14" font-weight="700" fill="#ffffff" stroke="#1a1a19" stroke-width="3" paint-order="stroke" >4</text>
<text x="337.0" y="346.0" text-anchor="middle" font-size="14" font-weight="700" fill="#ffffff" stroke="#1a1a19" stroke-width="3" paint-order="stroke" >1</text>
<text x="306.0" y="337.0" text-anchor="middle" font-size="14" font-weight="700" fill="#ffffff" stroke="#1a1a19" stroke-width="3" paint-order="stroke" >2</text>
<text x="275.0" y="380.0" text-anchor="middle" font-size="14" font-weight="700" fill="#ffffff" stroke="#1a1a19" stroke-width="3" paint-order="stroke" >1</text>
<text x="244.0" y="189.0" text-anchor="middle" font-size="14" font-weight="700" fill="#ffffff" stroke="#1a1a19" stroke-width="3" paint-order="stroke" >9</text>
<text x="151.0" y="414.0" text-anchor="middle" font-size="14" font-weight="700" fill="#ffffff" stroke="#1a1a19" stroke-width="3" paint-order="stroke" >1</text>
<text x="213.0" y="414.0" text-anchor="middle" font-size="14" font-weight="700" fill="#ffffff" stroke="#1a1a19" stroke-width="3" paint-order="stroke" >1</text>
<text x="182.0" y="379.0" text-anchor="middle" font-size="14" font-weight="700" fill="#ffffff" stroke="#1a1a19" stroke-width="3" paint-order="stroke" >3</text>
<rect x="34" y="529" width="12" height="12" rx="2" fill="#0ca30c"/>
<text x="53" y="539" font-size="13" fill="#c3c2b7">correct</text>
<rect x="34" y="551" width="12" height="12" rx="2" fill="#d03b3b"/>
<text x="53" y="561" font-size="13" fill="#c3c2b7">† abolished slab — no longer exists</text>
<rect x="34" y="573" width="12" height="12" rx="2" fill="#3987e5"/>
<text x="53" y="583" font-size="13" fill="#c3c2b7">wrong, but a live slab</text>
<text x="34" y="609" font-size="12" fill="#898781">† 12% abolished 2025-09-22 · 28% abolished 2026-02-01</text>
</svg>